<svg xmlns="http://www.w3.org/2000/svg" width="24.5" height="15.499" viewBox="0 0 24.5 15.499">
  <path id="hanger_icon" data-name="hanger icon" d="M1705.047,396.836l-10.553-5.575v-.7l.014,0c1.662-.412,2.778-1.447,2.778-2.779a2.778,2.778,0,0,0-2.778-2.779,2.735,2.735,0,0,0-2.771,2.426.389.389,0,0,0-.006.065s0,.005,0,.008a.5.5,0,0,0,1,0h0a1.555,1.555,0,0,1,.434-.936,1.856,1.856,0,0,1,1.34-.564,1.781,1.781,0,0,1,1.778,1.779,1.4,1.4,0,0,1-.465,1.02,3.371,3.371,0,0,1-1.553.788l-.772.239V390h0v1.265l-10.552,5.575a1.669,1.669,0,0,0-.948,1.468,1.8,1.8,0,0,0,1.887,1.692h20.228a1.8,1.8,0,0,0,1.885-1.692A1.669,1.669,0,0,0,1705.047,396.836Zm-.937,2.159h-20.228a.819.819,0,0,1-.886-.691.678.678,0,0,1,.406-.58l0,0,.005,0,10.583-5.592,10.587,5.592,0,0,0,0a.675.675,0,0,1,.406.58A.818.818,0,0,1,1704.109,399Z" transform="translate(-1681.744 -384.747)" fill="#93969e" stroke="#93969e" stroke-width="0.5"/>
</svg>
