<svg xmlns="http://www.w3.org/2000/svg" width="32" height="32.001" viewBox="0 0 32 32.001">
  <path id="Feedback_Icon" data-name="Feedback Icon" d="M7493.764,3152.284a.938.938,0,0,0-1.326,0l-7.225,7.226h-16.384a2.816,2.816,0,0,0-2.813,2.813v13.125a2.816,2.816,0,0,0,2.813,2.812h1v4.813a.937.937,0,0,0,1.607.656l5.35-5.469H7487.7a2.815,2.815,0,0,0,2.813-2.812v-10.634l7.226-7.226a.937.937,0,0,0,0-1.326Zm-8.618,15.247-2.651-2.651,7.955-7.955,2.651,2.651Zm-3.65-1,2,2-3.424,1.426Zm7.146,8.915a.939.939,0,0,1-.937.938h-11.312a.937.937,0,0,0-.67.282l-4.017,4.106v-3.451a.938.938,0,0,0-.938-.937h-1.937a.939.939,0,0,1-.938-.937v-13.125a.939.939,0,0,1,.938-.937h14.508l-2.831,2.833a.957.957,0,0,0-.208.313l-2.595,6.23h-5.062a.937.937,0,0,0,0,1.874h5.688a.945.945,0,0,0,.369-.075l6.8-2.832a.97.97,0,0,0,.314-.207l2.831-2.832Zm5.786-17.2-2.652-2.651,1.326-1.326,2.652,2.652Z" transform="translate(-7466.016 -3152.01)" fill="#b1b6ff"/>
</svg>
