<svg xmlns="http://www.w3.org/2000/svg" width="32" height="32" viewBox="0 0 32 32">
  <path id="Logout_Icon" data-name="Logout Icon" d="M2970.483,76.494a4,4,0,0,1-3.988-4v-24a4,4,0,0,1,3.988-4h11.959a1.334,1.334,0,0,1,0,2.668h-11.959a1.333,1.333,0,0,0-1.331,1.333v24a1.333,1.333,0,0,0,1.331,1.333h11.959a1.333,1.333,0,0,1,0,2.666Zm17.656-7.064a1.336,1.336,0,0,1,.015-1.885l5.774-5.716h-15.473a1.334,1.334,0,0,1,0-2.668h15.473l-5.774-5.716a1.331,1.331,0,1,1,1.865-1.9l8.08,8a1.33,1.33,0,0,1,.4.948,1.347,1.347,0,0,1-.4.95l-8.08,8a1.327,1.327,0,0,1-1.88-.014Z" transform="translate(-2966.495 -44.494)" fill="#4b56cb"/>
</svg>
