<svg xmlns="http://www.w3.org/2000/svg" width="32.25" height="32.25" viewBox="0 0 32.25 32.25">
  <g id="Shop_Icon" data-name="Shop Icon" transform="translate(0.125 0.125)">
    <g id="Group_26" data-name="Group 26" transform="translate(25.626 27.934)">
      <g id="Group_25" data-name="Group 25">
        <path id="Path_3" data-name="Path 3" d="M406.473,426a.473.473,0,1,0,.473.473A.473.473,0,0,0,406.473,426Z" transform="translate(-406 -426)" fill="#b1b6ff" stroke="#b1b6ff" stroke-width="0.25"/>
      </g>
    </g>
    <g id="Group_28" data-name="Group 28">
      <g id="Group_27" data-name="Group 27">
        <path id="Path_4" data-name="Path 4" d="M27.875,2.965V1.875A1.877,1.877,0,0,0,26,0H6A1.877,1.877,0,0,0,4.125,1.875V2.965C.048,10.494,0,10.27,0,10.624H0v1.25a3.111,3.111,0,0,0,1.625,2.664V31.375A.625.625,0,0,0,2.25,32h27.5a.625.625,0,0,0,.625-.625V14.539A3.145,3.145,0,0,0,32,11.875v-1.25h0C32,10.266,31.912,10.42,27.875,2.965ZM30.318,10H26.451L24.367,3.75h2.513Zm-8.693,1.25h3.75v.625a1.875,1.875,0,1,1-3.75,0Zm-.1-1.25L20.488,3.75H23.05L25.133,10ZM5.375,1.875A.626.626,0,0,1,6,1.25H26a.626.626,0,0,1,.625.625V2.5H5.375Zm15,9.375v.625a1.875,1.875,0,1,1-3.75,0V11.25ZM16.625,10V3.75h2.6L20.262,10Zm-4.887,0,1.042-6.25h2.6V10Zm3.637,1.25v.625a1.875,1.875,0,1,1-3.75,0V11.25ZM6.867,10,8.95,3.75h2.562L10.471,10Zm3.508,1.25v.625a1.875,1.875,0,1,1-3.75,0V11.25ZM5.12,3.75H7.633L5.55,10H1.682ZM1.25,11.875V11.25H5.375v.625A2.054,2.054,0,0,1,3.313,13.75a2.1,2.1,0,0,1-.817-.171A1.944,1.944,0,0,1,1.25,11.875ZM12.875,30.75H6.625V25.375h6.25Zm0-6.625H6.625V18.75h6.25Zm16.25,6.625h-15V18.125A.625.625,0,0,0,13.5,17.5H6a.625.625,0,0,0-.625.625V30.75h-2.5V14.969A3.247,3.247,0,0,0,3.313,15a3.445,3.445,0,0,0,2.281-.894,3.379,3.379,0,0,0,.376-.4A3.121,3.121,0,0,0,11,13.748a3.122,3.122,0,0,0,5,0,3.122,3.122,0,0,0,5,0,3.121,3.121,0,0,0,5.031-.043,3.384,3.384,0,0,0,.376.4A3.445,3.445,0,0,0,28.688,15a3.234,3.234,0,0,0,.437-.03ZM30.75,11.875A1.945,1.945,0,0,1,29.458,13.6a2.076,2.076,0,0,1-.77.152,2.054,2.054,0,0,1-2.063-1.875V11.25H30.75Z" fill="#b1b6ff" stroke="#b1b6ff" stroke-width="0.25"/>
      </g>
    </g>
    <g id="Group_30" data-name="Group 30" transform="translate(20.368 18.891)">
      <g id="Group_29" data-name="Group 29">
        <path id="Path_5" data-name="Path 5" d="M274.038,285.012h-.473v-4.539a.473.473,0,0,0-.473-.473h-5.674a.473.473,0,0,0-.473.473v4.539h-.473a.473.473,0,0,0,0,.946h7.566a.473.473,0,0,0,0-.946Zm-1.419,0h-4.728v-4.066h4.728Z" transform="translate(-266 -280)" fill="#b1b6ff" stroke="#b1b6ff" stroke-width="0.25"/>
      </g>
    </g>
    <g id="Group_32" data-name="Group 32" transform="translate(18.931 27.934)">
      <g id="Group_31" data-name="Group 31">
        <path id="Path_6" data-name="Path 6" d="M290.256,426h-3.783a.473.473,0,0,0,0,.946h3.783a.473.473,0,1,0,0-.946Z" transform="translate(-286 -426)" fill="#b1b6ff" stroke="#b1b6ff" stroke-width="0.25"/>
      </g>
    </g>
  </g>
</svg>
