<svg xmlns="http://www.w3.org/2000/svg" width="20" height="20" viewBox="0 0 20 20">
  <g id="Group_169" data-name="Group 169" transform="translate(-894 -619)">
    <path id="Op_component_1" data-name="Op component 1" d="M2625,564a10,10,0,1,0,10,10A10.01,10.01,0,0,0,2625,564Zm0,17.872a7.872,7.872,0,1,1,7.873-7.872A7.881,7.881,0,0,1,2625,581.872Z" transform="translate(-1720.999 55)" fill="#dfdfdf"/>
    <path id="Op_component_2" data-name="Op component 2" d="M2628.4,573H2623.9v-5.4a.823.823,0,1,0-1.646,0v6.226a.823.823,0,0,0,.823.823h5.317a.823.823,0,0,0,0-1.647Z" transform="translate(-1719.185 55.693)" fill="#dfdfdf"/>
  </g>
</svg>
