<svg xmlns="http://www.w3.org/2000/svg" width="16.5" height="10.5" viewBox="0 0 16.5 10.5">
  <path id="icon" d="M3845.363,525.89l-7.036-3.717V521.7l.009,0c1.109-.275,1.853-.965,1.853-1.853a1.852,1.852,0,0,0-1.853-1.853,1.825,1.825,0,0,0-1.847,1.618.236.236,0,0,0,0,.044s0,0,0,.006a.333.333,0,0,0,.667,0h0a1.036,1.036,0,0,1,.29-.624,1.235,1.235,0,0,1,.892-.376,1.187,1.187,0,0,1,1.186,1.186.936.936,0,0,1-.31.68,2.25,2.25,0,0,1-1.036.525l-.515.16v.116h0v.844l-7.034,3.717a1.113,1.113,0,0,0-.632.979,1.2,1.2,0,0,0,1.257,1.128h13.487a1.2,1.2,0,0,0,1.256-1.128A1.112,1.112,0,0,0,3845.363,525.89Zm-.625,1.439h-13.487a.545.545,0,0,1-.59-.461.451.451,0,0,1,.271-.387h0l0,0,7.056-3.728,7.058,3.728,0,0h0a.451.451,0,0,1,.271.387A.545.545,0,0,1,3844.738,527.33Z" transform="translate(-3829.744 -517.747)" fill="#fb0" stroke="#fb0" stroke-width="0.5"/>
</svg>
