<svg xmlns="http://www.w3.org/2000/svg" width="13.381" height="15.999" viewBox="0 0 13.381 15.999">
  <path id="Icon_" data-name="Icon " d="M2248.241,355.977l-2.78-1.389a.766.766,0,0,1-.425-.688v-.983c.067-.082.137-.174.209-.277a6.66,6.66,0,0,0,.86-1.687,1.154,1.154,0,0,0,.677-1.052v-1.164a1.161,1.161,0,0,0-.291-.764v-1.547a2.607,2.607,0,0,0-.608-1.9,4.558,4.558,0,0,0-5.764,0,2.609,2.609,0,0,0-.608,1.9v1.547a1.16,1.16,0,0,0-.292.764V349.9a1.159,1.159,0,0,0,.436.9,6.1,6.1,0,0,0,1.02,2.105v.962a.769.769,0,0,1-.4.675l-2.6,1.415a2.624,2.624,0,0,0-1.368,2.3V359.5h13.382v-1.176A2.611,2.611,0,0,0,2248.241,355.977Z" transform="translate(-2236.31 -343.5)" fill="#0085fe"/>
</svg>
