<svg xmlns="http://www.w3.org/2000/svg" width="15.988" height="15.988" viewBox="0 0 15.988 15.988">
  <path id="Icon" d="M2244.415,791.994l1.413-1.413a.5.5,0,0,0,0-.706l-.707-.707a.5.5,0,0,0-.707,0L2243,790.581l-1.412-1.412a.5.5,0,0,0-.708,0l-.706.707a.5.5,0,0,0,0,.707l1.412,1.412-1.41,1.41a.5.5,0,0,0,0,.706l.706.707a.5.5,0,0,0,.707,0l1.41-1.41,1.42,1.42a.5.5,0,0,0,.707,0l.706-.707a.5.5,0,0,0,0-.707ZM2243,784.006a7.994,7.994,0,1,0,7.994,7.994A7.993,7.993,0,0,0,2243,784.006Zm0,14.489a6.5,6.5,0,1,1,6.5-6.5A6.5,6.5,0,0,1,2243,798.495Z" transform="translate(-2235.006 -784.006)" fill="#7d5b00"/>
</svg>
