<svg xmlns="http://www.w3.org/2000/svg" width="32.514" height="28.562" viewBox="0 0 32.514 28.562">
  <path id="UserMng_Icon" data-name="UserMng Icon" d="M7495.99,2999.89l-1.269-4.41a.631.631,0,0,0-.15-.242,7.4,7.4,0,0,0-5.165-4.863l-.362-.061a1.514,1.514,0,0,0-1.54.484c-1.33,1.51-3.021,1.631-4.8,1.631s-3.474-.121-4.8-1.631a1.514,1.514,0,0,0-1.541-.484l-.361.091a7.49,7.49,0,0,0-4.409,3.232h-3.807c-.03,0-.03,0-.061-.03,0-.03-.03-.061-.03-.121l.786-2.81c.694-2.205,2.022-2.87,4.62-3.534a.585.585,0,0,0,.273-.151,3.368,3.368,0,0,0,.694.453.447.447,0,0,0,.271.06.638.638,0,0,0,.544-.332.605.605,0,0,0-.272-.815c-1.389-.725-2.386-2.78-2.386-4.894a3.429,3.429,0,0,1,3.412-3.413,3.834,3.834,0,0,1,1.027.151,6.91,6.91,0,0,0-.514,2.628c0,5.166,3.111,9.515,6.8,9.515,3.624,0,6.826-4.44,6.826-9.515a6.814,6.814,0,0,0-12.534-3.715,4.817,4.817,0,0,0-1.6-.272,4.618,4.618,0,0,0-3.9,2.175.642.642,0,0,0-.182-.121,2.888,2.888,0,0,0-1.419-.332,3,3,0,0,0-3.051,3.021,5.2,5.2,0,0,0,.694,2.6,3.885,3.885,0,0,0-3.2,2.749l-.483,1.752a1,1,0,0,0,.151.876,1.016,1.016,0,0,0,.846.423h2.325c-.029.121-.091.242-.12.362l-.786,2.84a1.334,1.334,0,0,0,1.269,1.661h3.2a4.863,4.863,0,0,0-.211.634l-1.27,4.44a1.736,1.736,0,0,0,.3,1.48,1.689,1.689,0,0,0,1.329.664h23.226a1.645,1.645,0,0,0,1.329-.664A1.676,1.676,0,0,0,7495.99,2999.89Zm-18.031-21.6a.41.41,0,0,0,.092-.12c.029-.03.029-.091.06-.121a5.515,5.515,0,0,1,4.833-2.839,5.631,5.631,0,0,1,5.346,3.927,2.842,2.842,0,0,1-2.839-1.117.591.591,0,0,0-.846-.121.513.513,0,0,0-.212.3c-.03.03-.03.061-.061.09-.845,1.722-3.685,2.447-6.916,1.813A6.334,6.334,0,0,1,7477.958,2978.292Zm1.692,3.232c2.416,0,4.409-.755,5.437-2.175a4.035,4.035,0,0,0,2.688,1.027,3.23,3.23,0,0,0,.756-.09,2.923,2.923,0,0,1,.03.513c0,4.44-2.628,8.337-5.618,8.337-2.869,0-5.376-3.595-5.587-7.824A12.229,12.229,0,0,0,7479.651,2981.524Zm-14.315,7.25.423-1.51c.361-1.238,1.116-1.6,2.627-1.964a.611.611,0,0,0,.242-.121,2.356,2.356,0,0,0,.452.3.45.45,0,0,0,.272.06.635.635,0,0,0,.543-.332.621.621,0,0,0-.242-.816,3.273,3.273,0,0,1-1.358-2.809,1.831,1.831,0,0,1,1.843-1.843,1.708,1.708,0,0,1,.875.211.718.718,0,0,0,.242.061,4.578,4.578,0,0,0-.242,1.45,7.726,7.726,0,0,0,1.48,4.592c-1.812.453-3.413,1.057-4.471,2.719Zm29.416,11.9a.529.529,0,0,1-.393.181h-23.226a.533.533,0,0,1-.393-.181.548.548,0,0,1-.09-.423l1.269-4.41a6.171,6.171,0,0,1,4.379-4.259l.362-.091a.384.384,0,0,1,.332.121c1.661,1.9,3.715,2.054,5.708,2.054s4.048-.151,5.709-2.054a.388.388,0,0,1,.362-.121l.362.091a6.222,6.222,0,0,1,4.379,4.259l.544,1.873a.5.5,0,0,0,.121.211l.664,2.3A.6.6,0,0,1,7494.751,3000.676Z" transform="translate(-7463.798 -2973.753)" fill="#b1b6ff" stroke="#b1b6ff" stroke-width="0.5"/>
</svg>
