<svg xmlns="http://www.w3.org/2000/svg" width="32" height="31.999" viewBox="0 0 32 31.999">
  <path id="Help_Icon" data-name="Help Icon" d="M7467.25,3127a1.253,1.253,0,0,1-1.251-1.25V3111a16,16,0,1,1,16,16Zm1.25-16v13.5H7482a13.5,13.5,0,1,0-13.5-13.5Zm11.354,7.128a1.672,1.672,0,0,1,1.656-1.677,1.677,1.677,0,1,1,0,3.353A1.672,1.672,0,0,1,7479.854,3118.128Zm.436-4.639a3.979,3.979,0,0,1,1.462-3.311c.717-.611,1.938-1.285,1.938-2.463,0-1-.872-1.481-1.96-1.481-2.223,0-1.744,1.677-2.92,1.677a1.25,1.25,0,0,1-1.309-1.241c0-1.175,1.352-2.919,4.293-2.919,2.787,0,4.64,1.546,4.64,3.594s-1.853,3.531-2.438,3.987a2.739,2.739,0,0,0-1.221,2.725c0,.414-.218.892-1.285.892C7480.593,3114.947,7480.29,3114.621,7480.29,3113.489Z" transform="translate(-7466 -3095)" fill="#b1b6ff"/>
</svg>
