<svg xmlns="http://www.w3.org/2000/svg" width="32.251" height="28.756" viewBox="0 0 32.251 28.756">
  <path id="Dashboard_Icon" data-name="Dashboard Icon" d="M7482.862,2822.424a.83.83,0,0,1-.827-.766.443.443,0,0,1,0-.064v-8.045a2.5,2.5,0,0,0-4.99,0v8.045c0,.024,0,.044,0,.064a.832.832,0,0,1-.829.766H7467.9a.83.83,0,0,1-.83-.831v-14.046a.83.83,0,0,1,1.66,0v13.216h6.652v-7.215a4.158,4.158,0,0,1,8.315,0v7.215h6.649v-13.216a.832.832,0,0,1,1.663,0v14.046a.831.831,0,0,1-.83.831Zm11.351-15.894-14.675-10.73-14.679,10.73a.83.83,0,1,1-.981-1.339l15.169-11.089a.829.829,0,0,1,.981,0l15.169,11.089a.831.831,0,0,1-.984,1.339Z" transform="translate(-7463.411 -2793.793)" fill="#fff" stroke="#fff" stroke-width="0.25"/>
</svg>
