<svg xmlns="http://www.w3.org/2000/svg" width="33.076" height="33" viewBox="0 0 33.076 33">
  <path id="BellIcon" d="M2613.216,62.524c-3.767-3.765-4.333-5.654-4.333-11.669a11.207,11.207,0,0,0-22.414,0c0,3.243-.087,4.454-.534,5.94a13.712,13.712,0,0,1-3.8,5.729,1.6,1.6,0,0,0,1.133,2.731h8.885l-.081.8a5.6,5.6,0,0,0,11.207,0l-.081-.8h8.886A1.6,1.6,0,0,0,2613.216,62.524Zm-15.54,7.531a4,4,0,0,1-4-4l.081-.8h7.844l.081.8A4,4,0,0,1,2597.676,70.055Zm-14.409-6.4c4.8-4.8,4.8-8,4.8-12.8a9.606,9.606,0,0,1,19.211,0c0,4.8,0,8,4.8,12.8Z" transform="translate(-2581.137 -39.155)" fill="#2c2c2c" stroke="#2c2c2c" stroke-width="1"/>
</svg>
