<svg xmlns="http://www.w3.org/2000/svg" width="32" height="32" viewBox="0 0 32 32">
  <path id="Reports_Icon" data-name="Reports Icon" d="M7466.937,3063a.938.938,0,0,1,0-1.875h1v-10.437a.939.939,0,0,1,.94-.938h3.75a.938.938,0,0,1,.938.938v10.437h1.875v-6.687a.936.936,0,0,1,.938-.937h3.75a.937.937,0,0,1,.938.937v6.688h1.875v-14.187a.936.936,0,0,1,.938-.937h3.75a.936.936,0,0,1,.938.938v14.187h1.874v-19.812a.936.936,0,0,1,.938-.937h3.749a.937.937,0,0,1,.938.937v19.812h1a.938.938,0,0,1,0,1.875Zm25.378-1.875h1.874v-18.875h-1.874Zm-7.5,0h1.876v-13.25h-1.876Zm-7.5,0h1.875v-5.75h-1.875Zm-7.5,0h1.875v-9.5h-1.875Zm5.625-14.187a2.762,2.762,0,0,1,.022-.349l-2.76-1.378a2.81,2.81,0,1,1,.862-2.023,2.685,2.685,0,0,1-.022.346l2.76,1.381a2.793,2.793,0,0,1,1.95-.79,2.752,2.752,0,0,1,1.21.276l3.753-3.752a2.764,2.764,0,0,1-.275-1.211,2.811,2.811,0,0,1,4.369-2.341l3.259-2.444a2.819,2.819,0,1,1,1.125,1.5l-3.259,2.444a2.761,2.761,0,0,1,.131.842,2.812,2.812,0,0,1-4.026,2.537l-3.749,3.75a2.812,2.812,0,1,1-5.35,1.213Zm1.875,0a.938.938,0,1,0,.938-.937A.939.939,0,0,0,7477.314,3046.939Zm-7.5-3.75a.938.938,0,1,0,.936-.937A.937.937,0,0,0,7469.814,3043.189Zm15-3.75a.938.938,0,1,0,.938-.938A.94.94,0,0,0,7484.813,3039.439Zm7.5-5.625a.937.937,0,1,0,.938-.937A.939.939,0,0,0,7492.314,3033.814Z" transform="translate(-7466.002 -3031.002)" fill="#b1b6ff"/>
</svg>
