<svg xmlns="http://www.w3.org/2000/svg" width="32" height="31.997" viewBox="0 0 32 31.997">
  <path id="Reserve_Icon" data-name="Reserve Icon" d="M7491.066,2944.685l-6.37-6.367-2.623,4.543a1.071,1.071,0,0,1-1.92-.138l-8.083-20.262a1.071,1.071,0,0,1,1.393-1.391l20.262,8.081a1.072,1.072,0,0,1,.139,1.922l-4.546,2.624,6.37,6.367a1.07,1.07,0,0,1,0,1.513l-3.107,3.107a1.07,1.07,0,0,1-1.514,0Zm-5.842-8.865,6.6,6.6,1.6-1.594-6.6-6.6a1.069,1.069,0,0,1,.224-1.681l3.839-2.22-15.9-6.34,6.342,15.9,2.218-3.839a1.071,1.071,0,0,1,.787-.526,1.351,1.351,0,0,1,.141-.01A1.064,1.064,0,0,1,7485.225,2935.82Zm-18.532-5.044a1.07,1.07,0,0,1,0-1.513l2.378-2.378a1.07,1.07,0,0,1,1.513,1.513l-2.38,2.378a1.067,1.067,0,0,1-1.511,0Zm-1.622-6.125a1.07,1.07,0,0,1,0-2.14h3.363a1.07,1.07,0,1,1,0,2.14Zm4.491-4.575-2.378-2.378a1.07,1.07,0,0,1,1.513-1.513l2.379,2.378a1.07,1.07,0,0,1-1.514,1.514Zm8.324-.491a1.07,1.07,0,0,1,0-1.513l2.378-2.378a1.07,1.07,0,0,1,1.514,1.513l-2.378,2.378a1.071,1.071,0,0,1-1.514,0Zm-4.372-2.15v-3.363a1.069,1.069,0,1,1,2.139,0v3.363a1.069,1.069,0,1,1-2.139,0Z" transform="translate(-7464.001 -2913.002)" fill="#b1b6ff"/>
</svg>
